<?xml version="1.0" encoding="UTF-8"?>
<svg id="a" xmlns="http://www.w3.org/2000/svg" xmlns:xlink="http://www.w3.org/1999/xlink" viewBox="0 0 76.4214 70.3511"<defs><linearGradient id="c" x1="11.609" y1="61.9039" x2="81.399" y2="61.9039" gradientTransform="translate(-12.9707 70.4149) scale(1.09 -1)" gradientUnits="userSpaceOnUse"><stop offset=".06" stop-color="#f48ea3"/><stop offset=".16" stop-color="#f491a5"/><stop offset=".24" stop-color="#f59bae"/><stop offset=".32" stop-color="#f7adbc"/><stop offset=".39" stop-color="#f9c6d0"/><stop offset=".46" stop-color="#fce5ea"/><stop offset=".51" stop-color="#fff"/><stop offset=".7" stop-color="#f9c6d2"/><stop offset=".87" stop-color="#f59db3"/><stop offset=".95" stop-color="#f48ea7"/></linearGradient><linearGradient id="d" x1="11.659" y1="35.0968" x2="81.379" y2="35.0968" gradientTransform="translate(-12.9707 70.4149) scale(1.09 -1)" gradientUnits="userSpaceOnUse"><stop offset=".11" stop-color="#f48eaa"/><stop offset=".51" stop-color="#fff"/><stop offset=".97" stop-color="#f4879c"/></linearGradient><linearGradient id="e" x1="13.509" y1="8.4491" x2="83.309" y2="8.4491" gradientTransform="translate(-12.9707 70.4149) scale(1.09 -1)" gradientUnits="userSpaceOnUse"><stop offset=".03" stop-color="#f48eaf"/><stop offset=".11" stop-color="#f494b3"/><stop offset=".2" stop-color="#f6a5bf"/><stop offset=".31" stop-color="#f8c1d3"/><stop offset=".43" stop-color="#fce7ee"/><stop offset=".5" stop-color="#fff"/><stop offset=".54" stop-color="#fdf1f4"/><stop offset=".79" stop-color="#f5a4b9"/><stop offset=".9" stop-color="#f387a2"/></linearGradient></defs><g="b"><path class="h" d="M71.2405.4224c-.06.01-.12.02-.18.02-.11,0-.2-.04-.3-.07h-.05c-.09,0-.17-.01-.25-.03-11.75.69-59.59-1.02-65.05-.02-7.22,1.32-7.36,15.42.49,16.68h64.61c7.44-1.93,8.04-13.86.73-16.59v.01Z"/><path class="g" d="M71.5205,27.1524h-.15c-.06,0-.1-.02-.15-.03h-.04c-.06-.01-.14-.02-.19-.04-11,.66-61.18-.93-65.9,0-6.85,1.34-6.61,15.15.17,16.47,4.71.92,54.59-.69,65.56-.03h.12c.08-.03.16-.04.25-.05.07-.02.14-.04.22-.05,6.51-2.76,6.77-13.47.11-16.25v-.02Z"/><path class="f" d="M70.8305,53.6324h-.03c-.12,0-.23-.02-.33-.06H5.7405c-8.27,1.73-6.81,15.29-.65,16.48,4.84.94,54.95-.7,65.94-.03.04,0,.08-.02.13-.02h0c.12-.05.24-.09.39-.09,6.8-3.12,6.41-14.27-.73-16.29l.01.01Z"/></g></svg>